<svg width="124" height="91" viewBox="0 0 124 91" fill="none" xmlns="http://www.w3.org/2000/svg">
<path d="M97.248 51.663L97.248 9.117C97.248 4.08366 93.1643 1.72885e-06 88.131 1.50883e-06L9.117 -1.94498e-06C4.08365 -2.16499e-06 -3.9932e-06 4.08365 -4.21321e-06 9.117L-6.07296e-06 51.663C-6.29297e-06 56.6963 4.08365 60.78 9.11699 60.78L88.131 60.78C93.1643 60.78 97.248 56.6963 97.248 51.663ZM6.07799 30.39C6.078 27.0281 8.7941 24.312 12.156 24.312C15.5179 24.312 18.234 27.0281 18.234 30.39C18.234 33.7519 15.5179 36.468 12.156 36.468C8.7941 36.468 6.07799 33.7519 6.07799 30.39Z" fill="#FF3D00"/>
<path d="M107.677 26.6356L107.677 26.6336C107.651 26.0999 107.735 25.5665 107.922 25.0659C108.108 24.5652 108.395 24.1078 108.764 23.7213C109.133 23.3347 109.577 23.0272 110.068 22.8173C110.559 22.6077 111.087 22.4998 111.62 22.5C111.62 22.5 111.621 22.5 111.621 22.5H117.334C118.38 22.5 119.384 22.9158 120.124 23.6558C120.864 24.3959 121.28 25.3996 121.28 26.4462V50.5904C121.28 51.637 120.864 52.6408 120.124 53.3808C119.384 54.1209 118.38 54.5366 117.334 54.5366H93.1908C92.1442 54.5366 91.1404 54.1209 90.4004 53.3808C89.6603 52.6408 89.2446 51.637 89.2446 50.5904L89.2446 44.8796C89.2446 44.8788 89.2446 44.8781 89.2446 44.8773C89.2446 44.8771 89.2446 44.8769 89.2446 44.8768C89.2444 44.3433 89.3523 43.8154 89.5618 43.3248C89.7718 42.8334 90.0793 42.3898 90.4659 42.0208C90.8524 41.6518 91.3098 41.3651 91.8104 41.1782C92.3111 40.9913 92.8444 40.908 93.3782 40.9334L93.3792 40.9334L99.5699 41.2304C98.1122 40.0658 96.4801 39.1191 94.7232 38.4299C91.1817 37.0408 87.3009 36.7642 83.5982 37.637C79.8956 38.5097 76.5468 40.4904 73.9985 43.3149C71.4502 46.1394 69.8234 49.6735 69.3349 53.4462C68.8465 57.2189 69.5195 61.0508 71.2645 64.4312C73.0094 67.8116 75.7432 70.5798 79.1015 72.3668C82.4598 74.1538 86.2831 74.8746 90.0615 74.4333C93.84 73.992 97.3942 72.4094 100.25 69.8966L100.257 69.891C101.01 69.2326 101.986 68.8851 102.986 68.9186C103.986 68.9522 104.936 69.3644 105.643 70.0719L105.644 70.0721L109.74 74.1691C109.741 74.1693 109.741 74.1695 109.741 74.1697C110.12 74.549 110.419 75.0016 110.617 75.5C110.816 75.9986 110.91 76.5325 110.896 77.069C110.881 77.6055 110.757 78.1334 110.531 78.6203C110.307 79.1046 109.986 79.5383 109.589 79.8951C103.643 85.2762 95.9061 88.2511 87.8863 88.2402C87.8857 88.2402 87.8851 88.2402 87.8845 88.2402L87.8881 85.7402L107.677 26.6356ZM107.677 26.6356L107.856 30.3451M107.677 26.6356L107.856 30.3451M107.856 30.3451C105.895 28.808 103.757 27.4984 101.481 26.4467C97.2203 24.477 92.5811 23.4592 87.8867 23.4641L107.856 30.3451Z" fill="#FF3D00" stroke="white" stroke-width="5"/>
</svg>
